<mxfile host="app.diagrams.net" modified="2024-03-13T01:37:46.690Z" agent="Mozilla/5.0 (Windows NT 10.0; Win64; x64) AppleWebKit/537.36 (KHTML, like Gecko) Chrome/122.0.0.0 Safari/537.36" etag="zbNDIGa7t961iqUSFMFO" version="24.0.5" type="github">
  <diagram name="Página-1" id="dIHeSUyRw8BDTjt31_I-">
    <mxGraphModel dx="731" dy="820" grid="0" gridSize="10" guides="1" tooltips="1" connect="1" arrows="1" fold="1" page="1" pageScale="1" pageWidth="850" pageHeight="1100" math="0" shadow="0">
      <root>
        <mxCell id="0" />
        <mxCell id="1" parent="0" />
        <mxCell id="GZBT88yKLhgWZanyVWb9-9" value="" style="edgeStyle=none;curved=1;rounded=0;orthogonalLoop=1;jettySize=auto;html=1;fontSize=12;startSize=8;endSize=8;" edge="1" parent="1" source="GZBT88yKLhgWZanyVWb9-1" target="GZBT88yKLhgWZanyVWb9-8">
          <mxGeometry relative="1" as="geometry" />
        </mxCell>
        <mxCell id="GZBT88yKLhgWZanyVWb9-1" value="Start" style="ellipse;whiteSpace=wrap;html=1;" vertex="1" parent="1">
          <mxGeometry x="343" y="97" width="120" height="80" as="geometry" />
        </mxCell>
        <mxCell id="GZBT88yKLhgWZanyVWb9-11" value="" style="edgeStyle=none;curved=1;rounded=0;orthogonalLoop=1;jettySize=auto;html=1;fontSize=12;startSize=8;endSize=8;" edge="1" parent="1" source="GZBT88yKLhgWZanyVWb9-8" target="GZBT88yKLhgWZanyVWb9-10">
          <mxGeometry relative="1" as="geometry" />
        </mxCell>
        <mxCell id="GZBT88yKLhgWZanyVWb9-8" value="Input PV" style="shape=parallelogram;perimeter=parallelogramPerimeter;whiteSpace=wrap;html=1;fixedSize=1;" vertex="1" parent="1">
          <mxGeometry x="343" y="205" width="120" height="60" as="geometry" />
        </mxCell>
        <mxCell id="GZBT88yKLhgWZanyVWb9-13" value="" style="edgeStyle=none;curved=1;rounded=0;orthogonalLoop=1;jettySize=auto;html=1;fontSize=12;startSize=8;endSize=8;" edge="1" parent="1" source="GZBT88yKLhgWZanyVWb9-10" target="GZBT88yKLhgWZanyVWb9-12">
          <mxGeometry relative="1" as="geometry" />
        </mxCell>
        <mxCell id="GZBT88yKLhgWZanyVWb9-10" value="O = Input(&quot; ingrese N para nacional o ingrese E para extranjero&quot;)" style="shape=parallelogram;perimeter=parallelogramPerimeter;whiteSpace=wrap;html=1;fixedSize=1;" vertex="1" parent="1">
          <mxGeometry x="239" y="293" width="326" height="60" as="geometry" />
        </mxCell>
        <mxCell id="GZBT88yKLhgWZanyVWb9-15" value="" style="edgeStyle=none;curved=1;rounded=0;orthogonalLoop=1;jettySize=auto;html=1;fontSize=12;startSize=8;endSize=8;" edge="1" parent="1" source="GZBT88yKLhgWZanyVWb9-12" target="GZBT88yKLhgWZanyVWb9-14">
          <mxGeometry relative="1" as="geometry" />
        </mxCell>
        <mxCell id="GZBT88yKLhgWZanyVWb9-16" value="Sí" style="edgeLabel;html=1;align=center;verticalAlign=middle;resizable=0;points=[];fontSize=12;" vertex="1" connectable="0" parent="GZBT88yKLhgWZanyVWb9-15">
          <mxGeometry x="-0.2157" y="3" relative="1" as="geometry">
            <mxPoint y="1" as="offset" />
          </mxGeometry>
        </mxCell>
        <mxCell id="GZBT88yKLhgWZanyVWb9-18" value="" style="edgeStyle=none;curved=1;rounded=0;orthogonalLoop=1;jettySize=auto;html=1;fontSize=12;startSize=8;endSize=8;" edge="1" parent="1" source="GZBT88yKLhgWZanyVWb9-12" target="GZBT88yKLhgWZanyVWb9-17">
          <mxGeometry relative="1" as="geometry" />
        </mxCell>
        <mxCell id="GZBT88yKLhgWZanyVWb9-19" value="Sino" style="edgeLabel;html=1;align=center;verticalAlign=middle;resizable=0;points=[];fontSize=12;" vertex="1" connectable="0" parent="GZBT88yKLhgWZanyVWb9-18">
          <mxGeometry x="-0.1969" y="-1" relative="1" as="geometry">
            <mxPoint as="offset" />
          </mxGeometry>
        </mxCell>
        <mxCell id="GZBT88yKLhgWZanyVWb9-12" value="¿O = &quot;N&quot;?" style="rhombus;whiteSpace=wrap;html=1;" vertex="1" parent="1">
          <mxGeometry x="336" y="387" width="134" height="125" as="geometry" />
        </mxCell>
        <mxCell id="GZBT88yKLhgWZanyVWb9-24" style="edgeStyle=none;curved=1;rounded=0;orthogonalLoop=1;jettySize=auto;html=1;entryX=0.5;entryY=0;entryDx=0;entryDy=0;fontSize=12;startSize=8;endSize=8;" edge="1" parent="1" source="GZBT88yKLhgWZanyVWb9-14" target="GZBT88yKLhgWZanyVWb9-20">
          <mxGeometry relative="1" as="geometry" />
        </mxCell>
        <mxCell id="GZBT88yKLhgWZanyVWb9-14" value="Total = PV + (PV * 0.8)" style="whiteSpace=wrap;html=1;" vertex="1" parent="1">
          <mxGeometry x="521" y="419.5" width="120" height="60" as="geometry" />
        </mxCell>
        <mxCell id="GZBT88yKLhgWZanyVWb9-23" style="edgeStyle=none;curved=1;rounded=0;orthogonalLoop=1;jettySize=auto;html=1;fontSize=12;startSize=8;endSize=8;entryX=0.5;entryY=0;entryDx=0;entryDy=0;" edge="1" parent="1" source="GZBT88yKLhgWZanyVWb9-17" target="GZBT88yKLhgWZanyVWb9-20">
          <mxGeometry relative="1" as="geometry">
            <mxPoint x="231" y="618" as="targetPoint" />
            <Array as="points">
              <mxPoint x="330" y="547" />
              <mxPoint x="354" y="567" />
            </Array>
          </mxGeometry>
        </mxCell>
        <mxCell id="GZBT88yKLhgWZanyVWb9-17" value="Total = PV + (PV * 0.18)" style="whiteSpace=wrap;html=1;" vertex="1" parent="1">
          <mxGeometry x="165" y="419.5" width="120" height="60" as="geometry" />
        </mxCell>
        <mxCell id="GZBT88yKLhgWZanyVWb9-20" value="Print = Total" style="shape=parallelogram;perimeter=parallelogramPerimeter;whiteSpace=wrap;html=1;fixedSize=1;" vertex="1" parent="1">
          <mxGeometry x="342" y="611" width="120" height="60" as="geometry" />
        </mxCell>
      </root>
    </mxGraphModel>
  </diagram>
</mxfile>
